# xmcd
#
# Track frame offsets: 
#        150
#        14137
#        27561
#        40138
#        52575
#        65136
#        76715
#        86453
#        104084
#        116278
#        135466
#        144726
#        155479
#        166054
#        178849
#        190513
#        205839
#        215359
#        226764
#        239710
#        254671
#        266654
#        282620
#        300622
#        310200
#        321799
#        332261
#
# Disc length: 4569 seconds
#
# Revision: 1
# Processed by: cddbd v1.5.2PL0 Copyright (c) Steve Scherf et al.
# Submitted via: ExactAudioCopyFreeDBPlugin 1.0
#
DISCID=8011d71b
DTITLE=Bobbie Gentry - Ode To Billie Joe - Touch 'Em With Love
DYEAR=2008
DGENRE=Folk
TTITLE0=Mississippi Delta
TTITLE1=I Saw An Angel Die
TTITLE2=Chickasaw County Child
TTITLE3=Sunday Best
TTITLE4=Niki Hoeky
TTITLE5=Papa, Won't You Let Me Go To Town With You
TTITLE6=Bugs
TTITLE7=Hurry, Tuesday Child
TTITLE8=Lazy Willie
TTITLE9=Ode To Billie Joe
TTITLE10=Touch 'Em With Love
TTITLE11=Greyhound Goin' Somewhere
TTITLE12=Natural To Be Gone
TTITLE13=Seasons Come, Seasons Go
TTITLE14=Glory Hallelujah, How They'll Sing
TTITLE15=I Wouldn't Be Surprised
TTITLE16=Son Of A Preacher Man
TTITLE17=Where's The Playground, Johnny
TTITLE18=I'll Never Fall In Love Again
TTITLE19=You've Made Me So Very Happy
TTITLE20=Scarlet Ribbons (Bonus Track)
TTITLE21=The Girl From Cincinnati (Bonus Track)
TTITLE22=You And Me Together (Bonus Track)
TTITLE23=Let It Be Me (Bonus Track)
TTITLE24=All I Have To Do Is Dream (Bonus Track)
TTITLE25=Walk Right Back (Bonus Track)
TTITLE26=En Todas Partes (Here, There And Everywhere) (Bonus Track)
EXTD=Two Albums On One CD:\n1967  - "Ode To Billie Joe"\n1969 - "Touch
EXTD='Em With Love"\n\nMade and Released in Australia
EXTT0=
EXTT1=
EXTT2=
EXTT3=
EXTT4=
EXTT5=
EXTT6=
EXTT7=
EXTT8=
EXTT9=
EXTT10=
EXTT11=
EXTT12=
EXTT13=
EXTT14=
EXTT15=
EXTT16=
EXTT17=
EXTT18=
EXTT19=
EXTT20=
EXTT21=
EXTT22=
EXTT23=
EXTT24=
EXTT25=
EXTT26=
PLAYORDER=
